<?xml version="1.0" encoding="utf-8"?>
<!-- Generator: Adobe Illustrator 16.0.0, SVG Export Plug-In . SVG Version: 6.00 Build 0)  -->
<!DOCTYPE svg PUBLIC "-//W3C//DTD SVG 1.1//EN" "http://www.w3.org/Graphics/SVG/1.1/DTD/svg11.dtd">
<svg version="1.1" id="Layer_1" xmlns="http://www.w3.org/2000/svg" xmlns:xlink="http://www.w3.org/1999/xlink" x="0px" y="0px"
	 width="44.87px" height="45.31px" viewBox="0 0 44.87 45.31" enable-background="new 0 0 44.87 45.31" xml:space="preserve">
<g>
	<polygon fill="#FFFFFF" points="10.87,16.6 10.93,16.64 10.92,16.89 10.75,17.12 10.71,16.82 10.79,16.71 10.819,16.61 	"/>
	<polygon fill="#FFFFFF" points="12.22,19.22 12.33,19.3 12.319,19.55 12.2,19.42 12.09,19.34 11.89,19.37 11.771,19.19 
		11.83,18.98 12.021,18.9 12.12,18.94 12.149,19.13 	"/>
	<polygon fill="#FFFFFF" points="13.56,18.92 13.54,18.82 13.58,18.76 13.68,18.75 13.7,18.89 13.66,18.95 13.61,18.96 	"/>
	<polygon fill="#FFFFFF" points="13.739,22.71 13.76,22.8 13.47,22.85 13.44,22.65 13.521,22.54 13.62,22.57 13.68,22.62 	"/>
	<polygon fill="#FFFFFF" points="14,19.54 14.22,19.71 14.19,19.81 14.09,19.78 13.989,19.79 13.78,19.72 13.39,19.78 13.239,19.76 
		13.18,19.67 13.2,19.52 13.239,19.46 13.351,19.49 13.399,19.49 13.46,19.58 13.569,19.66 13.71,19.59 	"/>
	<polygon fill="#FFFFFF" points="15.87,21.69 15.8,21.6 15.84,21.49 15.93,21.48 16.01,21.37 16.101,21.3 16.149,21.29 
		16.239,21.23 16.479,21.19 16.46,21.35 16.58,21.53 16.51,21.69 16.42,21.75 16.38,21.81 16.28,21.77 16.21,21.68 16.12,21.7 
		16,21.61 15.91,21.68 	"/>
	<polygon fill="#FFFFFF" points="16.59,24.5 16.61,24.6 16.569,24.65 16.47,24.67 16.26,24.6 16.149,24.52 16.05,24.48 
		15.989,24.44 15.75,24.48 15.58,24.36 15.76,24.23 15.979,24.35 16.12,24.32 16.229,24.36 16.37,24.33 16.479,24.42 16.55,24.51 	
		"/>
	<polygon fill="#FFFFFF" points="17.229,19.89 17.21,19.79 17.25,19.74 17.3,19.73 17.36,19.77 17.36,19.82 17.319,19.88 	"/>
	<polygon fill="#FFFFFF" points="17.43,22.83 17.5,22.97 17.34,23.2 17.22,23.06 17.16,23.02 17.101,22.93 17.18,22.82 
		17.271,22.76 17.37,22.79 	"/>
	<polygon fill="#FFFFFF" points="17.83,20.89 17.97,20.87 17.84,20.99 17.78,20.95 17.739,20.95 	"/>
	<polygon fill="#FFFFFF" points="18.569,23.8 18.72,24.17 18.56,24.39 18.31,24.38 18.239,23.95 18.11,23.72 18.31,23.74 	"/>
	<polygon fill="#FFFFFF" points="19.79,22.72 19.851,22.76 19.851,22.81 19.819,22.91 19.67,22.94 19.62,22.89 19.56,22.81 
		19.649,22.79 	"/>
	<polygon fill="#FFFFFF" points="19.64,8.17 19.521,7.99 19.64,7.82 19.851,7.89 19.96,7.97 20.03,8.11 19.84,8.19 	"/>
	<polygon fill="#FFFFFF" points="20.63,24.33 20.649,24.42 20.55,24.44 20.44,24.36 20.3,24.43 20.16,24.45 20.319,24.22 
		20.521,24.24 	"/>
	<polygon fill="#FFFFFF" points="20.68,22.73 20.94,23.09 20.521,22.96 20.3,22.84 20.29,22.74 20.38,22.68 	"/>
	<polygon fill="#FFFFFF" points="20.41,6.71 20.39,6.57 20.54,6.6 20.7,6.67 20.851,6.65 20.989,6.58 20.819,6.8 20.62,6.78 	"/>
	<polygon fill="#FFFFFF" points="21.28,23.04 21.351,23.18 21.271,23.34 21.06,23.27 21.06,23.22 20.95,23.14 20.94,23.09 
		20.93,23.04 21.17,23 	"/>
	<polygon fill="#FFFFFF" points="21.7,22.87 21.76,22.96 21.729,23.07 21.59,23.14 21.479,23.06 21.5,22.9 21.64,22.83 	"/>
	<polygon fill="#FFFFFF" points="21.851,21.96 21.88,22.1 21.75,22.27 21.72,22.08 21.771,22.02 	"/>
	<polygon fill="#FFFFFF" points="22.229,23.73 22.37,24.01 22.21,24.28 22.03,24.06 22.03,23.76 	"/>
	<polygon fill="#FFFFFF" points="22.271,20.8 22.16,20.72 22.42,20.48 22.53,20.52 22.55,20.66 22.521,20.81 22.38,20.84 	"/>
	<polygon fill="#FFFFFF" points="22.53,21.21 22.63,21.19 22.84,21.26 22.96,21.44 22.84,21.56 22.7,21.63 22.479,21.51 
		22.351,21.34 	"/>
	<polygon fill="#FFFFFF" points="23.06,24 23.04,24.2 23.06,24.35 22.93,24.42 22.75,24.25 22.81,23.99 	"/>
	<polygon fill="#FFFFFF" points="22.26,22.99 22.021,22.72 22.069,22.37 22.51,22.01 23.11,21.72 22.84,22.25 22.61,22.68 
		22.5,22.95 	"/>
	<polygon fill="#FFFFFF" points="22.58,6.98 22.569,6.88 22.739,6.7 22.95,6.77 23.01,7.21 23.16,7.48 22.7,7.4 	"/>
	<polygon fill="#FFFFFF" points="23.489,10.65 23.34,10.63 23.47,10.51 23.67,10.53 	"/>
	<polygon fill="#FFFFFF" points="23.96,23.37 23.51,23.69 23.08,23.46 22.989,23.52 22.94,23.53 22.729,23.46 22.46,23.3 
		22.84,23.24 23.11,23.35 23.5,23.29 	"/>
	<polygon fill="#FFFFFF" points="23.479,22.55 23.2,22.35 23.979,22.23 24.04,22.66 23.92,22.48 23.739,22.31 	"/>
	<polygon fill="#FFFFFF" points="23.899,8.46 23.819,8.27 23.86,8.17 23.94,8.06 24.101,8.13 24.18,8.32 24.14,8.42 24.05,8.49 	"/>
	<polygon fill="#FFFFFF" points="24.351,24 24.36,24.1 24.12,24.14 23.87,24.13 23.87,24.08 23.94,23.92 24.19,23.93 24.3,24.01 	
		"/>
	<polygon fill="#FFFFFF" points="23.59,21.34 23.521,21.21 23.55,21.05 23.7,21.03 23.979,20.94 24.31,20.84 24.33,20.93 
		24.37,20.93 24.239,21.05 24.11,21.12 23.89,21.35 23.81,21.46 23.66,21.43 	"/>
	<polygon fill="#FFFFFF" points="24.45,23.39 24.55,23.38 24.569,23.52 24.53,23.58 24.44,23.59 24.41,23.45 	"/>
	<polygon fill="#FFFFFF" points="24.43,24.54 24.64,24.6 24.5,24.67 24.41,24.69 24.38,24.5 24.399,24.34 24.42,24.14 24.489,23.93 
		24.53,23.88 24.56,24.07 24.521,24.13 24.51,24.38 	"/>
	<polygon fill="#FFFFFF" points="24.36,21.47 24.41,21.47 24.71,21.52 24.8,22.1 24.739,22.01 24.47,21.9 24.12,21.86 23.88,21.9 
		23.79,21.61 24,21.43 24.05,21.42 24.09,21.37 24.3,21.43 	"/>
	<polygon fill="#FFFFFF" points="25.021,22.91 24.86,22.79 24.83,22.59 24.91,22.48 24.97,22.57 25.03,22.61 25.04,22.66 	"/>
	<polygon fill="#FFFFFF" points="24.44,6.49 24.38,6.4 24.42,6.35 24.61,6.27 24.771,6.39 24.819,6.38 24.88,6.43 25.06,6.3 
		25.22,6.42 25.101,6.59 24.95,6.56 24.61,6.62 	"/>
	<polygon fill="#FFFFFF" points="25.18,34.63 25.069,34.5 25.14,34.34 25.25,34.38 25.34,34.36 25.45,34.39 25.489,34.39 
		25.56,34.48 25.61,34.52 25.43,34.6 	"/>
	<polygon fill="#FFFFFF" points="25.479,24.28 25.7,24.39 25.569,24.56 25.31,24.8 24.93,24.91 24.8,25.02 24.7,24.99 24.67,24.8 
		24.8,24.68 24.87,24.52 24.899,24.37 24.86,24.12 25.09,23.99 25.351,24.05 	"/>
	<polygon fill="#FFFFFF" points="24.69,20.73 24.521,20.61 24.94,20.44 25.04,20.43 25.47,20.61 25.521,20.65 25.569,20.64 
		25.67,20.68 25.729,20.72 25.76,21.26 25.54,21.44 25.149,21.15 24.91,20.89 24.81,20.86 	"/>
	<polygon fill="#FFFFFF" points="25.101,9.51 25.229,9.39 25.39,9.42 25.53,9.4 25.68,9.43 25.81,9.31 25.93,9.39 25.94,9.48 
		25.851,9.55 25.7,9.82 25.479,10 25.28,10.03 25.21,9.89 25.04,9.77 	"/>
	<polygon fill="#FFFFFF" points="25,23.71 24.93,23.57 24.95,23.37 25.13,23.29 25.42,23.24 25.66,23.16 25.87,22.93 26.149,22.79 
		26.26,22.87 26.26,22.92 26.021,23.25 25.649,23.41 25.399,23.4 25.271,23.52 25.25,23.72 25.11,23.79 	"/>
	<polygon fill="#FFFFFF" points="26.149,23.48 26.29,23.71 26.229,23.96 26.149,24.08 26.13,24.33 25.95,24.4 25.81,24.18 
		25.989,24 25.96,23.86 25.88,23.62 25.989,23.41 26.101,23.44 	"/>
	<polygon fill="#FFFFFF" points="25.819,33.25 25.75,33.11 25.89,33.09 25.95,33.13 26.05,33.16 26.33,33.02 26.21,33.24 
		25.97,33.27 	"/>
	<polygon fill="#FFFFFF" points="26.88,23.67 27.021,23.64 27.09,23.78 27.06,23.89 27.03,24.04 26.93,24.05 26.771,23.93 
		26.75,23.79 	"/>
	<polygon fill="#FFFFFF" points="27.11,21.95 26.67,22.31 26.399,22.15 26.08,22.05 25.93,22.33 26.06,22.55 25.84,22.73 
		25.569,22.92 25.239,22.68 25.149,22.44 25.67,22.26 25.899,21.83 26.25,21.53 26.351,21.22 26.41,20.96 26.399,20.87 26.33,20.78 
		26.11,20.61 25.88,20.4 25.61,20.29 25.34,20.13 25.06,19.93 25.51,19.96 25.72,19.98 25.91,19.95 26.42,20.02 26.41,20.32 
		26.399,20.57 26.62,20.73 26.56,20.94 26.56,21.29 26.51,21.59 26.59,21.78 26.729,21.76 26.91,21.63 27.069,21.7 	"/>
	<polygon fill="#FFFFFF" points="27.069,21.36 27.04,21.21 27.19,21.19 27.25,21.28 27.37,21.41 27.28,21.42 	"/>
	<polygon fill="#FFFFFF" points="27.649,23.89 27.62,24 27.64,24.1 27.61,24.25 27.58,24.35 27.55,24.51 27.521,24.61 27.47,24.67 
		27.54,24.76 27.5,24.86 27.34,25.08 27.29,25.09 27.28,24.99 27.229,25 27.239,24.75 27.03,24.68 26.86,24.56 26.71,24.53 
		26.69,24.39 26.819,24.27 26.94,24.4 27.351,24.19 27.53,24.06 	"/>
	<polygon fill="#FFFFFF" points="27.53,9.14 27.521,9.09 27.55,8.99 27.7,8.97 27.71,9.06 27.68,9.17 27.58,9.18 	"/>
	<polygon fill="#FFFFFF" points="27.83,21.79 27.649,21.91 27.45,21.94 27.39,21.85 27.37,21.71 27.5,21.59 27.64,21.57 27.8,21.64 
			"/>
	<polygon fill="#FFFFFF" points="28.149,24.22 28.11,24.27 28.12,24.32 28.021,24.33 27.93,24.4 27.83,24.41 27.819,24.31 
		27.91,24.25 27.989,24.14 28.13,24.12 	"/>
	<polygon fill="#FFFFFF" points="27.76,7.12 27.75,7.03 27.92,6.9 28.149,6.77 28.21,6.86 28.229,6.95 28.149,7.06 27.91,7.15 	"/>
	<polygon fill="#FFFFFF" points="28.239,11.51 28.25,11.61 28.21,11.67 28.11,11.68 28.08,11.44 28.17,11.42 	"/>
	<polygon fill="#FFFFFF" points="27.739,33.2 27.729,33.1 27.771,33.05 27.8,32.94 28,32.96 28.021,33.11 28.12,33.39 28.18,33.48 
		28.29,33.56 28.09,33.54 27.899,33.57 	"/>
	<polygon fill="#FFFFFF" points="27.979,10.51 28.42,10.44 28.47,10.48 28.569,10.47 28.649,10.66 28.62,10.76 28.53,10.82 
		28.37,10.8 28.36,10.7 28.19,10.58 28.149,10.63 27.76,10.69 27.55,10.63 27.59,10.57 27.63,10.47 27.819,10.44 27.88,10.48 	"/>
	<polygon fill="#FFFFFF" points="28.63,25.73 28.53,25.74 28.43,25.71 28.42,25.66 28.46,25.6 28.55,25.54 28.649,25.53 28.7,25.57 
		28.72,25.66 	"/>
	<polygon fill="#FFFFFF" points="28.989,32.61 28.88,32.53 28.81,32.44 28.81,32.39 28.86,32.39 28.851,32.34 28.95,32.37 
		29.01,32.41 29,32.36 29.06,32.4 29.05,32.35 29.101,32.35 29.09,32.3 29.14,32.29 29.19,32.33 29.22,32.48 29.12,32.49 
		29.13,32.54 29.03,32.56 	"/>
	<polygon fill="#FFFFFF" points="28.94,34.21 28.97,34.1 28.96,34.01 29,33.95 29.101,33.98 29.22,34.11 29.229,34.21 29.149,34.32 
		29.101,34.33 	"/>
	<polygon fill="#FFFFFF" points="29.101,36.21 29.239,36.19 29.11,36.31 28.96,36.33 	"/>
	<polygon fill="#FFFFFF" points="28.42,25.02 28.31,24.93 28.26,24.64 28.44,24.47 28.89,24.2 29,23.94 29.149,23.62 29.44,23.57 
		29.61,23.69 29.67,23.78 29.729,23.82 29.64,23.89 29.489,23.91 29.239,23.9 29.21,24.05 29.18,24.16 28.89,24.5 28.55,24.9 	"/>
	<polygon fill="#FFFFFF" points="29.81,24.36 29.78,24.51 29.8,24.61 29.76,24.71 29.68,24.82 29.81,25.05 29.8,25.3 29.71,25.31 
		29.59,25.18 29.46,25.01 29.38,24.82 	"/>
	<polygon fill="#FFFFFF" points="29.89,26.23 29.88,26.13 29.91,26.03 30.05,25.96 30.11,26 30.12,26.09 30.09,26.2 30,26.26 	"/>
	<polygon fill="#FFFFFF" points="29.78,11.23 29.59,11.01 29.61,10.76 29.83,10.92 30.08,10.93 30.2,11.06 30.13,11.27 29.96,11.45 
		29.81,11.42 	"/>
	<polygon fill="#FFFFFF" points="30.06,23.08 29.93,22.9 29.95,22.7 30.14,22.67 30.25,22.75 30.319,22.84 30.37,22.88 30.41,23.12 
		30.31,23.14 30.22,23.2 30.22,23.15 30.17,23.16 	"/>
	<polygon fill="#FFFFFF" points="30.34,36.92 30.46,37 30.42,37.1 30.229,37.13 30.17,37.09 30.25,36.98 30.3,36.97 	"/>
	<polygon fill="#FFFFFF" points="30.55,32.13 30.51,32.18 30.521,32.23 30.47,32.24 30.36,32.2 30.34,32.06 30.29,32.02 30.38,32 	
		"/>
	<polygon fill="#FFFFFF" points="30.79,24.6 30.72,24.51 30.76,24.46 30.91,24.44 31.01,24.47 31.03,24.57 30.989,24.62 
		30.89,24.64 	"/>
	<polygon fill="#FFFFFF" points="30.5,34.71 30.59,34.65 30.729,34.58 30.78,34.57 30.899,34.4 31.04,34.33 31.069,34.52 
		31.01,34.83 31.021,34.88 30.94,34.99 30.91,35.09 30.729,35.22 30.62,35.14 30.41,35.07 30.38,34.88 30.41,34.77 30.399,34.72 	
		"/>
	<polygon fill="#FFFFFF" points="30.899,26.67 31.13,26.88 31.21,27.07 31.12,27.13 31.069,27.09 30.94,26.91 	"/>
	<polygon fill="#FFFFFF" points="31.71,13.16 31.67,12.92 31.729,12.66 31.87,12.89 31.851,13.09 31.8,13.1 	"/>
	<polygon fill="#FFFFFF" points="31.771,28.42 31.75,28.32 31.84,28.21 31.979,28.19 31.95,28.34 31.86,28.4 31.819,28.46 	"/>
	<polygon fill="#FFFFFF" points="32.21,24.49 32.14,24.4 32.17,24.24 32.25,24.13 32.351,24.12 32.42,24.26 32.39,24.41 32.3,24.47 
			"/>
	<polygon fill="#FFFFFF" points="32.399,29.96 32.601,29.98 32.66,30.07 32.63,30.17 32.58,30.18 32.62,30.42 32.45,30.6 
		32.41,30.35 32.239,30.23 32.22,30.08 	"/>
	<polygon fill="#FFFFFF" points="32.95,31.61 32.87,31.42 32.95,31.31 33.04,31.25 33.14,31.23 33.2,31.27 33.21,31.37 33.18,31.47 
		33.149,31.63 33.31,31.7 33.319,31.75 33.38,31.84 33.45,31.98 33.43,32.18 33.41,32.33 33.37,32.39 33.319,32.39 33.25,32.26 
		33.229,32.16 33.239,31.91 33.12,31.73 	"/>
	<polygon fill="#FFFFFF" points="33.819,31.13 33.76,31.09 33.8,30.98 33.84,30.93 33.93,30.86 33.989,30.95 33.95,31.01 
		33.92,31.11 	"/>
	<path fill="#FFFFFF" d="M32.87,0.43H12c-6.63,0-12,5.38-12,12v20.88c0,6.62,5.37,12,12,12h20.87c6.63,0,12-5.38,12-12V12.43
		C44.87,5.81,39.5,0.43,32.87,0.43z M34.58,15.74l0.38-0.1l0.279-0.15l0.261-0.23l0.09-0.71l-0.01-0.4l-0.091-1.87L35.41,11.4
		l-0.19-1.21l-0.23-1.15l-0.18-0.86l-0.02-0.15l0.43,0.23l0.62,0.45l0.37,0.14l0.22,1.16l0.341,1.53l0.219,1.16l0.171,1.11
		l0.079,0.83l0.021,0.79l-0.14,1.02l-0.01,0.25l-1.34,0.35l-2.511,0.38l-1.06,0.22l-0.24,0.03l-0.57-0.16l-0.81-0.07l-1.681-0.29
		l-0.149-0.32l0.72-0.16l2.03-0.36l0.78-0.07l0.82-0.18l1.01-0.2l0.33-0.1L34.58,15.74z M13.25,40.18l-2.58-1.29l-0.92-0.5
		l-0.13-0.23l-0.1-0.33L9.3,36.77L8.94,34.69l-0.461-2.35l-0.27-1.45l0.09-0.36l0.311-0.55l0.379-0.45l0.311-0.2l1.02-0.15
		l0.69-0.06l0.74-0.01l1.021-0.16l0.959-0.2l0.66-0.2L15,28.36l0.989-0.05l0.301,0.05l0.18,0.17l0.131,0.23l0.139,0.28l0.271,0.8
		l0.091,0.53l0.109,1.37l0.08,0.19l0.18,0.22l0.26,0.11l0.211,0.06l0.6,0.06l1.41,0.08l0.74-0.01l1.369-0.11l2.32-0.36l0.98-0.1
		l0.85-0.23l0.811-0.27l0.75-0.56l0.539-0.73l0.26-0.83l0.061-0.91l-0.3-0.69l-0.479-0.52l-0.791-0.33l-1.08-0.23l-0.76-0.13
		l-1.76-0.18l-1.1-0.08l-2.57,0.4l-0.84,0.03l-0.94-0.01l-1.7-0.08l-1.67-0.24l-1.75-0.43l-1.59-0.65l-0.699-0.39L9.88,24.34
		L9.2,23.8l-0.551-0.66L7.7,21.75l-0.78-1.52l-0.601-1.64L6.13,17.68l-0.04-0.89l0.021-0.9l0.17-0.81l0.38-1.7l0.489-1.66
		l0.381-0.75l0.539-0.68l1.201-1.23l1.359-1.15L12.08,7l0.78-0.37l0.779-0.42l0.73-0.4L16,5.11l1.72-0.46l0.811-0.18l1.8-0.22
		l0.89-0.04l0.84,0.02l1.73-0.07l0.84,0.02l1.76,0.13l2.53,0.36l0.83,0.26l0.851,0.32l1.549,0.76l0.761,0.42l0.27,0.16l0.14,0.28
		L33.5,7.68l0.33,1.54l0.239,1.2l0.17,1.11l0.091,1.58l-0.021,1.14l-0.01,0.3l-0.04,0.05l-0.14,0.08l-0.24,0.03l-1.061,0.21
		l-2.56,0.4l-1.06,0.21l-1.44,0.32l-1.09,0.02l-0.351-0.05l-0.159-0.07l-0.14-0.23l-0.141-0.33l-0.25-0.65l-0.26-1.7l-0.09-0.23
		l-0.17-0.12l-0.26-0.11l-0.211-0.07H23.7l-1.971,0.1l-1.06,0.16l-1.5,0.28l-0.8,0.27l-0.68,0.4l-0.67,0.5L16.47,14.6l-0.34,0.7
		l-0.02,0.85l0.279,0.89l0.66,0.75l0.811,0.42l1.029,0.24l0.801,0.02l1.85-0.18l2.8-0.18l2.54,0.05l1.75,0.13l1.68,0.29l1.601,0.45
		l0.85,0.32l0.8,0.37l1.381,0.93l0.629,0.54l1.121,1.17l0.91,1.45l0.409,0.73l0.55,1.6l0.18,0.86l0.101,0.98l-0.069,1.8l-0.221,0.87
		l-0.42,1.8l-0.26,0.83l-0.43,0.81l-1.121,1.41l-1.399,1.21l-1.47,1.07l-1.59,0.94l-1.621,0.74l-1.789,0.62l-0.86,0.23l-1.8,0.23
		l-0.93,0.09l-1,0.2l-1.94,0.35L21,41.27l-1.04,0.01l-1.92-0.25l-0.92-0.16l-0.96-0.1l-1.98-0.34L13.25,40.18z M17.44,27.79
		L18,27.85h0.989l0.98-0.05l2.43-0.37l0.99-0.01l0.85,0.07l0.811,0.12l0.71,0.09l0.92,0.21l0.48,0.22l0.18,0.18l0.09,0.28
		l-0.899-0.06l-1.051-0.04l-2.609,0.4l-0.84,0.03l-1.74-0.03l-0.85-0.07l-1.631-0.25L17.66,28.2L17.44,27.79z M24.46,14.67
		l-0.7,0.01l-0.92,0.09l-1.649,0.25l-0.721,0.16l-0.609,0.24l-0.551,0.29l-0.49,0.37l-0.34,0.35l-0.14,0.37l-0.05,0.3l-0.5-0.32
		l-0.29-0.3l-0.181-0.52l-0.01-0.35l0.19-0.37l0.3-0.34l0.49-0.38l0.55-0.28l0.649-0.25l0.681-0.15l1.69-0.26l0.93-0.09l0.88-0.04
		l0.61,0.06L24.46,14.67z M41.05,31.11l-0.15,0.92L40.7,33l-0.26,0.93l-0.301,0.94l-0.539,0.97l-0.66,0.9l-0.681,0.75l-0.69,0.65
		L36.78,38.8l-0.7,0.61l-0.86,0.57l-0.77,0.47l-0.91,0.49l-0.83,0.42l-0.83,0.38l-0.99,0.39l-1.039,0.31l-0.951,0.25l-0.879,0.08
		L26.22,43l-1.97,0.4l-1.16,0.18l-0.96-0.1l-1.93-0.3l-0.961-0.1l-0.959-0.15l-0.971-0.2l-0.939-0.25l-0.9-0.41l-0.59-0.31h0.05
		l2.15,0.46l1.81,0.17l0.961,0.1h1.279l1.03-0.11l0.97-0.15l1.92-0.39l1.85-0.23l0.881-0.09l0.949-0.24l1-0.31l1.021-0.4l0.84-0.38
		l0.82-0.47l0.92-0.49l0.771-0.46l0.799-0.57l0.761-0.56l0.79-0.67l0.689-0.65l0.68-0.75l0.66-0.89l0.48-1.02l0.359-0.94l0.261-0.89
		l0.19-0.97l0.159-0.92l0.05-0.95l-0.02-1.13l-0.12-1.08l-0.19-0.96l-0.239-0.9l-0.32-0.8l-0.229-0.51l0.42,0.44l0.539,0.61
		l0.301,0.35l0.09,0.28l0.32,0.8l0.24,0.9l0.189,0.96l0.13,1.12l0.021,1.09L41.05,31.11z"/>
</g>
</svg>
