<?xml version="1.0" encoding="utf-8"?>
<!-- Generator: Adobe Illustrator 16.0.0, SVG Export Plug-In . SVG Version: 6.00 Build 0)  -->
<!DOCTYPE svg PUBLIC "-//W3C//DTD SVG 1.1//EN" "http://www.w3.org/Graphics/SVG/1.1/DTD/svg11.dtd">
<svg version="1.1" id="Layer_1" xmlns="http://www.w3.org/2000/svg" xmlns:xlink="http://www.w3.org/1999/xlink" x="0px" y="0px"
	 width="47px" height="44.87px" viewBox="0 0 47 44.87" enable-background="new 0 0 47 44.87" xml:space="preserve">
<g>
	<polygon fill="#FFFFFF" points="7.813,14.44 7.873,14.43 7.943,14.49 7.934,14.81 7.723,15.09 7.663,14.72 7.773,14.58 	"/>
	<polygon fill="#FFFFFF" points="9.523,17.69 9.604,17.8 9.743,17.91 9.732,18.23 9.583,18.06 9.434,17.95 9.184,17.99 9.023,17.76 
		9.113,17.49 9.354,17.39 9.482,17.44 	"/>
	<polygon fill="#FFFFFF" points="11.403,17.46 11.323,17.41 11.313,17.28 11.363,17.21 11.482,17.19 11.514,17.38 11.463,17.45 	"/>
	<polygon fill="#FFFFFF" points="11.482,22.17 11.563,22.28 11.583,22.41 11.213,22.46 11.174,22.21 11.273,22.07 11.413,22.11 	"/>
	<polygon fill="#FFFFFF" points="11.613,18.45 11.113,18.52 10.924,18.49 10.833,18.38 10.873,18.18 10.924,18.11 11.063,18.15 
		11.123,18.14 11.203,18.26 11.344,18.36 11.523,18.27 11.893,18.21 12.184,18.42 12.143,18.56 12.003,18.52 11.883,18.54 	"/>
	<polygon fill="#FFFFFF" points="14.293,20.97 14.213,20.86 14.253,20.72 14.383,20.7 14.482,20.56 14.604,20.48 14.663,20.47 
		14.783,20.39 15.094,20.34 15.053,20.53 15.223,20.76 15.123,20.97 15.014,21.05 14.953,21.12 14.823,21.08 14.743,20.97 
		14.613,20.98 14.473,20.88 14.354,20.96 	"/>
	<polygon fill="#FFFFFF" points="14.143,24.56 13.934,24.4 14.163,24.24 14.434,24.39 14.623,24.36 14.753,24.4 14.943,24.38 
		15.083,24.48 15.174,24.6 15.232,24.59 15.253,24.71 15.203,24.78 15.073,24.8 14.803,24.72 14.663,24.61 14.523,24.57 
		14.453,24.51 	"/>
	<polygon fill="#FFFFFF" points="16.174,18.64 16.043,18.66 16.023,18.54 16.083,18.47 16.143,18.46 16.213,18.51 16.223,18.57 	"/>
	<polygon fill="#FFFFFF" points="15.982,22.43 16.104,22.35 16.232,22.39 16.303,22.45 16.393,22.62 16.184,22.91 16.033,22.74 
		15.963,22.69 15.883,22.58 	"/>
	<polygon fill="#FFFFFF" points="16.833,20.07 16.764,20.02 16.703,20.03 16.813,19.95 17.003,19.92 	"/>
	<polygon fill="#FFFFFF" points="17.443,24.44 17.354,23.88 17.184,23.59 17.443,23.61 17.773,23.69 17.973,24.17 17.764,24.46 	"/>
	<polygon fill="#FFFFFF" points="19.193,22.58 19.123,22.53 19.043,22.41 19.163,22.39 19.344,22.3 19.413,22.35 19.424,22.42 
		19.383,22.55 	"/>
	<polygon fill="#FFFFFF" points="19.153,3.59 18.993,3.36 19.153,3.14 19.413,3.23 19.563,3.34 19.653,3.51 19.413,3.61 	"/>
	<polygon fill="#FFFFFF" points="19.813,24.52 20.023,24.24 20.283,24.26 20.424,24.37 20.443,24.49 20.323,24.51 20.174,24.4 
		19.993,24.49 	"/>
	<polygon fill="#FFFFFF" points="20.493,22.32 20.813,22.77 20.283,22.6 20.003,22.45 19.982,22.33 20.104,22.25 	"/>
	<polygon fill="#FFFFFF" points="20.143,1.72 20.113,1.53 20.303,1.56 20.514,1.66 20.703,1.63 20.883,1.54 20.663,1.83 20.413,1.8 
			"/>
	<polygon fill="#FFFFFF" points="20.823,22.84 20.813,22.77 20.803,22.71 21.123,22.67 21.253,22.71 21.344,22.89 21.243,23.09 
		20.982,23 20.973,22.94 	"/>
	<polygon fill="#FFFFFF" points="21.793,22.5 21.873,22.61 21.833,22.75 21.653,22.84 21.514,22.73 21.543,22.54 21.723,22.45 	"/>
	<polygon fill="#FFFFFF" points="22.023,21.51 21.863,21.72 21.833,21.47 21.883,21.4 21.993,21.32 	"/>
	<polygon fill="#FFFFFF" points="22.473,23.6 22.653,23.96 22.453,24.31 22.223,24.03 22.223,23.64 	"/>
	<polygon fill="#FFFFFF" points="22.863,19.47 22.893,19.65 22.854,19.85 22.674,19.88 22.533,19.83 22.393,19.73 22.723,19.42 	"/>
	<polygon fill="#FFFFFF" points="22.643,20.52 22.873,20.36 22.993,20.34 23.264,20.42 23.424,20.65 23.253,20.81 23.083,20.9 
		22.803,20.75 	"/>
	<polygon fill="#FFFFFF" points="23.543,23.95 23.523,24.21 23.553,24.4 23.373,24.49 23.153,24.27 23.223,23.94 	"/>
	<polygon fill="#FFFFFF" points="22.273,21.85 22.833,21.38 23.604,21.01 23.264,21.7 22.973,22.25 22.833,22.59 22.523,22.64 
		22.213,22.31 	"/>
	<polygon fill="#FFFFFF" points="22.934,2.05 22.913,1.93 23.133,1.71 23.403,1.79 23.493,2.35 23.674,2.71 23.083,2.61 	"/>
	<polygon fill="#FFFFFF" points="24.104,6.78 23.903,6.75 24.073,6.6 24.333,6.62 	"/>
	<polygon fill="#FFFFFF" points="23.613,23.11 24.113,23.04 24.693,23.14 24.123,23.54 23.563,23.25 23.453,23.33 23.393,23.34 
		23.123,23.25 22.773,23.05 23.273,22.97 	"/>
	<polygon fill="#FFFFFF" points="23.732,21.82 24.723,21.67 24.813,22.23 24.653,22 24.424,21.78 24.094,22.08 	"/>
	<polygon fill="#FFFFFF" points="24.623,3.96 24.523,3.72 24.573,3.59 24.674,3.44 24.883,3.54 24.982,3.78 24.943,3.91 24.823,4 	
		"/>
	<polygon fill="#FFFFFF" points="25.143,23.96 25.203,23.95 25.223,24.08 24.913,24.12 24.594,24.11 24.583,24.05 24.674,23.84 
		25.003,23.86 	"/>
	<polygon fill="#FFFFFF" points="25.174,20 25.232,19.99 25.073,20.15 24.893,20.24 24.623,20.54 24.514,20.68 24.313,20.65 
		24.232,20.53 24.143,20.35 24.174,20.16 24.363,20.13 24.723,20.01 25.153,19.88 	"/>
	<polygon fill="#FFFFFF" points="25.313,23.42 25.283,23.24 25.344,23.17 25.463,23.15 25.493,23.33 25.443,23.41 	"/>
	<polygon fill="#FFFFFF" points="25.273,24.39 25.293,24.13 25.383,23.86 25.434,23.79 25.473,24.04 25.424,24.11 25.403,24.43 
		25.313,24.64 25.573,24.72 25.403,24.81 25.273,24.83 25.243,24.58 	"/>
	<polygon fill="#FFFFFF" points="25.283,20.69 25.674,20.76 25.783,21.5 25.703,21.39 25.363,21.25 24.913,21.19 24.604,21.24 
		24.482,20.87 24.764,20.64 24.823,20.63 24.873,20.56 25.143,20.65 25.213,20.7 	"/>
	<polygon fill="#FFFFFF" points="26.073,22.54 25.854,22.38 25.823,22.14 25.924,21.99 26.003,22.11 26.073,22.16 26.083,22.22 	"/>
	<polygon fill="#FFFFFF" points="25.323,1.43 25.243,1.32 25.293,1.25 25.533,1.15 25.753,1.3 25.813,1.29 25.883,1.35 26.113,1.18 
		26.333,1.34 26.174,1.56 25.973,1.52 25.543,1.59 	"/>
	<polygon fill="#FFFFFF" points="26.753,37.42 26.833,37.47 26.594,37.57 26.283,37.62 26.123,37.45 26.223,37.24 26.354,37.29 
		26.482,37.27 26.613,37.31 26.674,37.3 	"/>
	<polygon fill="#FFFFFF" points="25.783,24.82 25.883,24.61 25.913,24.42 25.863,24.1 26.163,23.93 26.493,24.01 26.663,24.3 
		26.943,24.45 26.783,24.67 26.443,24.97 25.953,25.11 25.783,25.26 25.653,25.22 25.613,24.97 	"/>
	<polygon fill="#FFFFFF" points="26.094,19.35 26.643,19.59 26.713,19.64 26.773,19.63 26.903,19.67 26.982,19.73 27.023,20.42 
		26.743,20.66 26.232,20.29 25.934,19.95 25.793,19.91 25.643,19.74 25.424,19.58 25.973,19.37 	"/>
	<polygon fill="#FFFFFF" points="26.174,5.32 26.344,5.17 26.533,5.2 26.723,5.17 26.924,5.2 27.094,5.05 27.232,5.16 27.253,5.28 
		27.133,5.36 26.934,5.71 26.653,5.95 26.403,5.98 26.313,5.81 26.094,5.65 	"/>
	<polygon fill="#FFFFFF" points="27.354,22.99 26.873,23.19 26.553,23.17 26.383,23.32 26.363,23.58 26.184,23.67 26.033,23.57 
		25.943,23.39 25.973,23.13 26.213,23.03 26.583,22.97 26.883,22.86 27.163,22.57 27.514,22.39 27.663,22.49 27.663,22.55 	"/>
	<polygon fill="#FFFFFF" points="27.083,24.17 27.303,23.95 27.283,23.76 27.174,23.46 27.313,23.18 27.453,23.22 27.523,23.28 
		27.693,23.57 27.623,23.9 27.514,24.04 27.503,24.36 27.264,24.46 	"/>
	<polygon fill="#FFFFFF" points="27.393,35.73 27.743,35.54 27.594,35.82 27.283,35.87 27.094,35.84 27.003,35.66 27.184,35.63 
		27.253,35.68 	"/>
	<polygon fill="#FFFFFF" points="28.533,24.02 28.313,23.86 28.283,23.67 28.453,23.52 28.643,23.49 28.732,23.67 28.684,23.8 
		28.653,24 	"/>
	<polygon fill="#FFFFFF" points="27.854,19.21 27.844,19.53 28.133,19.74 28.043,20.01 28.043,20.46 27.982,20.85 28.083,21.09 
		28.264,21.06 28.493,20.9 28.703,20.99 28.753,21.3 28.184,21.77 27.833,21.57 27.434,21.44 27.232,21.79 27.403,22.08 
		27.123,22.32 26.773,22.56 26.344,22.25 26.232,21.94 26.903,21.71 27.203,21.16 27.653,20.77 27.783,20.37 27.854,20.04 
		27.833,19.92 27.753,19.8 27.463,19.59 27.174,19.32 26.833,19.18 26.482,18.98 26.123,18.71 26.703,18.75 26.963,18.77 
		27.213,18.74 27.863,18.83 	"/>
	<polygon fill="#FFFFFF" points="28.943,20.45 29.094,20.62 28.963,20.63 28.703,20.55 28.674,20.36 28.854,20.33 	"/>
	<polygon fill="#FFFFFF" points="29.453,23.81 29.413,23.94 29.434,24.07 29.393,24.26 29.354,24.4 29.323,24.6 29.273,24.73 
		29.223,24.8 29.303,24.92 29.264,25.05 29.053,25.34 28.993,25.35 28.973,25.22 28.903,25.23 28.924,24.91 28.653,24.83 
		28.434,24.67 28.243,24.63 28.213,24.45 28.383,24.29 28.533,24.46 29.063,24.19 29.293,24.03 	"/>
	<polygon fill="#FFFFFF" points="29.363,4.89 29.283,4.84 29.283,4.78 29.323,4.64 29.514,4.62 29.523,4.74 29.482,4.87 	"/>
	<polygon fill="#FFFFFF" points="29.643,20.91 29.674,21.1 29.443,21.26 29.193,21.3 29.113,21.19 29.083,21 29.253,20.84 
		29.443,20.82 	"/>
	<polygon fill="#FFFFFF" points="30.094,24.22 30.033,24.29 30.043,24.36 29.924,24.37 29.803,24.46 29.684,24.48 29.663,24.35 
		29.783,24.27 29.883,24.13 30.073,24.1 	"/>
	<polygon fill="#FFFFFF" points="29.594,2.25 29.573,2.12 29.803,1.96 30.094,1.79 30.174,1.9 30.193,2.02 30.094,2.17 29.783,2.28 
			"/>
	<polygon fill="#FFFFFF" points="30.123,7.77 30.203,7.89 30.223,8.01 30.163,8.08 30.043,8.1 29.993,7.79 	"/>
	<polygon fill="#FFFFFF" points="29.563,35.78 29.543,35.65 29.604,35.58 29.643,35.45 29.903,35.47 29.934,35.66 30.053,36.02 
		30.133,36.13 30.273,36.24 30.014,36.22 29.764,36.25 	"/>
	<path fill="#FFFFFF" d="M30.323,28.65l-0.61-0.67l-1.02-0.42l-1.391-0.3l-0.979-0.17l-2.271-0.22l-1.41-0.1l-3.299,0.5l-1.08,0.04
		l-1.211-0.01l-2.189-0.11l-2.15-0.31l-2.25-0.54L8.424,25.5l-0.9-0.5l-0.93-0.62l-0.871-0.69l-0.699-0.85l-1.23-1.79l-1-1.95
		l-0.77-2.11l-0.25-1.18l-0.041-1.14l0.011-1.15l0.22-1.05l0.5-2.18l0.631-2.14l0.489-0.96l0.69-0.87l1.539-1.58l1.75-1.48
		l1.861-1.18l1.01-0.47l1-0.53l0.939-0.53L13.653,0h-0.479c-6.631,0-12,5.37-12,12v20.87c0,5.75,4.049,10.56,9.449,11.73l-3.01-1.51
		l-1.18-0.65l-0.17-0.29l-0.131-0.43l-0.279-1.36L5.383,37.7l-0.59-3.04l-0.35-1.85l0.119-0.47l0.4-0.7l0.49-0.58l0.41-0.26l1.3-0.2
		l0.88-0.07l0.96-0.02l1.31-0.2l1.23-0.25l0.85-0.26l0.801-0.25l1.26-0.06l0.391,0.06l0.229,0.22l0.17,0.3l0.181,0.35l0.35,1.03
		l0.1,0.69l0.15,1.76l0.1,0.24l0.23,0.28l0.34,0.14l0.27,0.09l0.78,0.07l1.8,0.11l0.95-0.02l1.76-0.14l2.99-0.46l1.26-0.13
		l1.101-0.3l1.029-0.35l0.971-0.72l0.689-0.93l0.34-1.08l0.08-1.16L30.323,28.65z M28.003,29.77l-1.34-0.05l-3.36,0.51l-1.08,0.04
		l-2.24-0.04l-1.1-0.08l-2.08-0.32l-0.209-0.48l-0.271-0.53l0.72,0.08h1.27l1.271-0.07l3.11-0.48h1.27l1.1,0.08l1.041,0.16
		l0.91,0.12l1.189,0.26l0.62,0.29l0.22,0.22l0.12,0.36L28.003,29.77z"/>
	<polygon fill="#FFFFFF" points="29.873,6.6 30.434,6.51 30.503,6.57 30.633,6.55 30.732,6.79 30.693,6.92 30.573,7 30.383,6.97 
		30.363,6.84 30.143,6.69 30.094,6.76 29.594,6.83 29.323,6.75 29.373,6.68 29.424,6.54 29.674,6.5 29.743,6.56 	"/>
	<polygon fill="#FFFFFF" points="30.732,25.91 30.803,25.96 30.823,26.09 30.703,26.17 30.583,26.19 30.453,26.14 30.443,26.08 
		30.493,26.01 30.604,25.93 	"/>
	<polygon fill="#FFFFFF" points="30.934,34.74 31.003,34.73 30.993,34.67 31.123,34.71 31.193,34.76 31.184,34.7 31.253,34.75 
		31.243,34.69 31.313,34.68 31.303,34.62 31.363,34.61 31.434,34.66 31.463,34.85 31.344,34.87 31.354,34.93 31.223,34.95 
		31.174,35.02 31.023,34.91 30.943,34.8 	"/>
	<polygon fill="#FFFFFF" points="31.104,37.07 31.143,36.94 31.123,36.81 31.184,36.74 31.313,36.78 31.463,36.95 31.482,37.08 
		31.383,37.22 31.323,37.23 	"/>
	<polygon fill="#FFFFFF" points="31.323,39.78 31.143,39.81 31.303,39.65 31.493,39.62 	"/>
	<polygon fill="#FFFFFF" points="32.043,23.67 32.113,23.72 32.003,23.8 31.813,23.83 31.493,23.82 31.463,24.01 31.413,24.15 
		31.033,24.59 30.604,25.1 30.443,25.25 30.293,25.15 30.243,24.77 30.463,24.55 31.043,24.2 31.184,23.86 31.373,23.45 
		31.743,23.39 31.963,23.55 	"/>
	<polygon fill="#FFFFFF" points="32.223,24.41 32.184,24.6 32.203,24.73 32.163,24.86 32.063,25 32.232,25.3 32.213,25.62 
		32.094,25.64 31.943,25.47 31.773,25.24 31.674,25 	"/>
	<polygon fill="#FFFFFF" points="32.363,26.55 32.533,26.46 32.613,26.51 32.623,26.64 32.583,26.77 32.473,26.85 32.333,26.81 
		32.313,26.69 	"/>
	<polygon fill="#FFFFFF" points="32.184,7.52 31.953,7.24 31.963,6.92 32.253,7.13 32.573,7.14 32.723,7.31 32.643,7.58 32.424,7.8 
		32.223,7.77 	"/>
	<polygon fill="#FFFFFF" points="32.953,22.51 33.003,22.82 32.873,22.84 32.764,22.92 32.753,22.86 32.684,22.87 32.543,22.76 
		32.383,22.53 32.403,22.27 32.653,22.24 32.793,22.34 32.883,22.46 	"/>
	<polygon fill="#FFFFFF" points="32.913,40.55 33.053,40.66 33.014,40.79 32.764,40.83 32.693,40.78 32.793,40.63 32.863,40.63 	"/>
	<polygon fill="#FFFFFF" points="33.184,34.39 33.123,34.47 33.133,34.53 33.073,34.54 32.943,34.49 32.913,34.31 32.844,34.25 
		32.963,34.24 	"/>
	<polygon fill="#FFFFFF" points="33.773,24.55 33.793,24.67 33.743,24.75 33.613,24.77 33.482,24.72 33.403,24.61 33.453,24.54 
		33.643,24.51 	"/>
	<polygon fill="#FFFFFF" points="33.403,37.54 33.473,37.54 33.623,37.32 33.803,37.23 33.843,37.48 33.773,37.87 33.783,37.93 
		33.684,38.08 33.633,38.21 33.403,38.37 33.264,38.27 32.993,38.18 32.953,37.93 33.003,37.8 32.993,37.74 33.113,37.72 
		33.232,37.64 	"/>
	<polygon fill="#FFFFFF" points="33.633,27.38 33.934,27.65 34.033,27.89 33.913,27.97 33.843,27.92 33.684,27.69 	"/>
	<polygon fill="#FFFFFF" points="34.783,9.93 34.673,10.01 34.623,9.7 34.703,9.37 34.873,9.66 34.843,9.92 	"/>
	<polygon fill="#FFFFFF" points="34.813,29.68 34.743,29.63 34.723,29.5 34.833,29.36 35.013,29.33 34.983,29.53 34.863,29.61 	"/>
	<polygon fill="#FFFFFF" points="35.493,24.1 35.583,24.27 35.543,24.47 35.434,24.55 35.303,24.57 35.223,24.46 35.263,24.26 
		35.363,24.12 	"/>
	<polygon fill="#FFFFFF" points="35.854,31.88 35.793,31.89 35.843,32.2 35.623,32.43 35.573,32.12 35.354,31.96 35.323,31.77 
		35.553,31.61 35.813,31.63 35.894,31.75 	"/>
	<polygon fill="#FFFFFF" points="36.553,33.56 36.523,33.75 36.733,33.85 36.733,33.91 36.823,34.03 36.913,34.2 36.883,34.46 
		36.854,34.66 36.803,34.73 36.733,34.74 36.644,34.56 36.623,34.44 36.644,34.12 36.483,33.89 36.263,33.73 36.163,33.49 
		36.273,33.35 36.383,33.26 36.513,33.25 36.583,33.3 36.604,33.42 	"/>
	<polygon fill="#FFFFFF" points="37.503,33.09 37.383,33.11 37.313,33.06 37.354,32.93 37.403,32.85 37.523,32.77 37.604,32.89 
		37.543,32.96 	"/>
	<path fill="#FFFFFF" d="M34.043,0h-0.47l1.66,0.81l0.979,0.55l0.351,0.2l0.18,0.35l0.22,1.05l0.431,1.98l0.31,1.54l0.21,1.44
		l0.12,2.02l-0.03,1.47v0.38l-0.05,0.07l-0.18,0.1L37.463,12l-1.359,0.28l-3.301,0.5l-1.359,0.27l-1.85,0.41l-1.4,0.03l-0.461-0.06
		l-0.199-0.1l-0.18-0.29l-0.19-0.42l-0.319-0.84l-0.33-2.18l-0.11-0.3l-0.22-0.16L25.844,9l-0.261-0.08l-1.22-0.01l-2.53,0.13
		l-1.37,0.21l-1.92,0.36l-1.029,0.35l-0.871,0.52l-0.859,0.64l-0.721,0.74l-0.43,0.9l-0.029,1.09L14.973,15l0.851,0.96l1.04,0.54
		l1.32,0.3l1.02,0.04l2.391-0.24l3.6-0.23l3.26,0.07l2.25,0.17l2.17,0.37l2.061,0.57l1.079,0.41l1.03,0.48l1.78,1.19l0.81,0.71
		l1.44,1.5l1.17,1.86l0.53,0.94l0.699,2.06l0.23,1.11l0.13,1.25l-0.09,2.31l-0.271,1.13l-0.539,2.31l-0.351,1.07l-0.54,1.04
		l-1.439,1.82l-1.811,1.55l-1.89,1.37l-2.04,1.21l-2.09,0.96l-2.301,0.79l-0.92,0.25h4.49c0.09,0,0.18,0,0.271-0.01l0.199-0.09
		l1.051-0.61l1.18-0.62l1-0.6l1.03-0.73l0.97-0.73l1.02-0.85l0.891-0.84l0.87-0.96l0.85-1.15l0.62-1.31l0.46-1.22l0.33-1.13
		l0.26-1.25l0.2-1.18l0.07-1.22l-0.04-1.46l-0.141-1.38l-0.26-1.24l-0.3-1.16l-0.41-1.02l-0.3-0.66l0.54,0.56l0.689,0.78l0.391,0.45
		l0.12,0.37l0.409,1.02l0.03,0.12V12C46.043,5.37,40.673,0,34.043,0z M24.453,11.96l-1.2,0.12l-2.11,0.32l-0.93,0.21l-0.779,0.31
		l-0.711,0.36l-0.629,0.48l-0.44,0.45l-0.181,0.47l-0.069,0.4l-0.63-0.42l-0.381-0.39l-0.229-0.66v-0.45l0.24-0.48l0.38-0.44
		l0.63-0.48l0.71-0.36l0.84-0.32l0.86-0.2l2.18-0.33l1.19-0.12l1.14-0.05l0.78,0.07l0.23,1.5L24.453,11.96z M41.623,14.23
		l-0.01,0.32l-1.72,0.46l-3.24,0.49l-1.36,0.28l-0.31,0.04l-0.73-0.2l-1.03-0.1l-2.16-0.37l-0.199-0.42l0.93-0.2l2.601-0.46
		l1.01-0.09l1.05-0.23l1.3-0.26l0.42-0.13l0.19-0.03l0.49-0.14l0.35-0.18l0.34-0.31l0.12-0.91l-0.02-0.5l-0.11-2.41l-0.11-1.13
		l-0.239-1.56l-0.29-1.48l-0.23-1.11l-0.03-0.19l0.551,0.3l0.789,0.58l0.48,0.18l0.29,1.49l0.43,1.97l0.29,1.48l0.221,1.44l0.1,1.06
		l0.03,1.02L41.623,14.23z"/>
</g>
</svg>
